# xmcd
#
# Track frame offsets:
#	150
#	13488
#	27124
#	37549
#	49801
#	63986
#	79903
#	92382
#	104046
#	118018
#	130421
#	141808
#	156834
#	171788
#	185507
#	199277
#	210018
#	224431
#	238092
#	253689
#
# Disc length: 3581 seconds
#
# Revision: 0
# Processed by: cddbd v1.5.2PL0 Copyright (c) Steve Scherf et al.
# Submitted via: audiograbber 1.83.01
#
DISCID=1a0dfb14
DTITLE=—борник - Gold Standards - 40 Classics From The Great American Songbook 
DTITLE=CD1
DYEAR=1900
DGENRE=
TTITLE0=Frank Sinatra - I Get A Kick Out Of You
TTITLE1=Billie Holiday - Let's Do It
TTITLE2=Billie Holiday - Just One Of Those Things
TTITLE3=Anita O'Day - What Is This Thing Called Love
TTITLE4=Ethel Waters - Miss Otis Regrets
TTITLE5=Jeri Southern - Every Time We Say Goodbye
TTITLE6=Frank Sinatra - I Could Write A Book
TTITLE7=Frank Sinatra - My Funny Valentine
TTITLE8=Doris Day - I Don't Know What Time It Was
TTITLE9=Lena Horne - Where Or When
TTITLE10=Dick Haymes - There's A Small Hotel
TTITLE11=Peggy Lee - Lover
TTITLE12=Frank Sinatra - Blue Skies
TTITLE13=Bessie Smith - Alexander's Ragtime Band
TTITLE14=The Boswell Sisters - Cheek To Cheek
TTITLE15=Ethel Merman -  There's No Business Like Show Business
TTITLE16=Hoagy Carmichael - Stardust
TTITLE17=Rosemary Clooney - In The Cool, Cool, Cool Of The Evening
TTITLE18=Billie Holiday - Georgia On My Mind
TTITLE19=Hoagy Carmichael - Rockin' Chair
EXTD=
EXTT0=
EXTT1=
EXTT2=
EXTT3=
EXTT4=
EXTT5=
EXTT6=
EXTT7=
EXTT8=
EXTT9=
EXTT10=
EXTT11=
EXTT12=
EXTT13=
EXTT14=
EXTT15=
EXTT16=
EXTT17=
EXTT18=
EXTT19=
PLAYORDER=
